<?xml version="1.0" encoding="utf-8"?>
<!-- Generator: Adobe Illustrator 28.1.0, SVG Export Plug-In . SVG Version: 6.00 Build 0)  -->
<svg version="1.1" id="Layer_1" xmlns="http://www.w3.org/2000/svg" xmlns:xlink="http://www.w3.org/1999/xlink" x="0px" y="0px"
	 viewBox="0 0 5655 1981" style="enable-background:new 0 0 5655 1981;" xml:space="preserve">
<style type="text/css">
	.st0{clip-path:url(#SVGID_00000136380954939748948350000001894857246921058209_);}
	.st1{fill:#1F8DF0;}
	.st2{fill:#FFFFFF;}
</style>
<g>
	<defs>
		<rect id="SVGID_1_" width="5654.2" height="1980.3"/>
	</defs>
	<clipPath id="SVGID_00000078046704439708090790000012082075041074634658_">
		<use xlink:href="#SVGID_1_"  style="overflow:visible;"/>
	</clipPath>
	<g style="clip-path:url(#SVGID_00000078046704439708090790000012082075041074634658_);">
		<path class="st1" d="M1866.7,695.1c-10-3.7-20-7.7-29.9-11.7c-244.1-100.2-439.2-295.3-539.4-539.4c-3.9-9.5-7.7-19.1-11.3-28.8
			h-0.1C1252.6,49,1133,0,990.7,0S728.9,49,695.5,115.2h-0.2c-3.6,9.7-7.4,19.3-11.3,28.8c73.2,197.6,177.4,380.1,306.8,541.6
			c8.4,10.5,17,21,25.6,31.3c8.6,10.3,17.4,20.6,26.2,30.8l0.1,0.1c5.2,5.9,10.4,11.8,15.6,17.7c15.7,17.6,31.7,34.9,48,51.9
			c40.5,42.2,82.8,82.5,126.8,120.9c20.3,17.7,41.1,35,62.1,51.9c-69.4,55.6-135,115.9-196.1,180.3c-22.5,18.8-48.7,35.4-56.5,29.7
			l13.8,16.7l12.3,15.3c118.4,147.7,215.1,310,288.3,483.2c108.9-187.3,277.5-335.5,479.8-418.5c9.9-4.1,19.8-8,29.9-11.7
			c65.9-33.8,114.7-153.1,114.7-295C1981.4,848.2,1932.7,729,1866.7,695.1z"/>
		<path class="st1" d="M965.1,1263.4c-8.6-10.3-17.4-20.6-26.2-30.8l-0.1-0.1c-5.2-5.9-10.4-11.8-15.6-17.7
			c-15.7-17.6-31.7-34.9-48-51.9c-40.5-42.2-82.8-82.5-126.8-120.9c-20.3-17.7-41.1-35-62.1-51.9c68.6-55,133.5-114.5,194-178.1
			c22.6-19.5,49.8-36.9,57.9-31l-13.1-17.7L912.8,748C794.4,600.3,697.7,438,624.5,264.8c-109,187.4-277.7,335.6-480,418.6
			c-9.9,4.1-19.8,8-29.9,11.7C48.7,729,0,848.2,0,990.2c0,141.9,48.7,261.2,114.7,295c10,3.7,20,7.7,29.9,11.7
			c244.1,100.2,439.2,295.3,539.4,539.4c3.9,9.5,7.7,19.1,11.3,28.8h0.1c33.5,66.2,153,115.2,295.3,115.2s261.8-49,295.3-115.2h0.2
			c3.6-9.7,7.4-19.3,11.3-28.8c-73.2-197.6-177.4-380.1-306.8-541.6C982.2,1284.2,973.7,1273.8,965.1,1263.4z"/>
		<path class="st2" d="M2951.1,832.3c0,155.5-99.6,265-268.3,265h-169.7V1371h-150V568.4h150H2684
			C2850.4,568.4,2951.1,670.2,2951.1,832.3z M2793.5,829c0-65.7-40.5-128.1-136.9-128.1h-143.4V967h142.3
			C2752.9,966.9,2793.5,902.3,2793.5,829z"/>
		<path class="st2" d="M3266.2,812.5c170.8,0,283.6,118.3,283.6,285.8c0,168.6-112.8,285.8-283.6,285.8s-284.7-117.2-284.7-285.8
			C2981.5,930.8,3095.3,812.5,3266.2,812.5z M3266.2,1256c84.3,0,140.2-64.6,140.2-157.7s-55.8-157.7-140.2-157.7
			c-85.4,0-140.2,64.6-140.2,157.7S3180.8,1256,3266.2,1256z"/>
		<path class="st2" d="M3638.3,553h143.4v818h-143.4V553z"/>
		<path class="st2" d="M4430.6,827.9L4170,1499.1c-66.8,173-207,152.2-311,113.9l38.3-129.2c59.1,36.1,129.2,39.4,155.5-35l17.5-46
			l-232.1-574.9h151.1l147.8,392l144.5-392H4430.6z"/>
		<path class="st2" d="M4490.7,1371V553h143.4v486.2l200.4-211.3H5013l-235.4,248.6l221.2,294.6h-174.1l-141.3-196l-49.3,52.6V1371
			H4490.7z"/>
		<path class="st2" d="M5059.7,642.8c0-48.2,38.3-85.4,86.5-85.4c48.2,0,86.5,37.2,86.5,85.4c0,49.3-38.3,86.5-86.5,86.5
			C5098.1,729.3,5059.7,692.1,5059.7,642.8z M5218.5,827.9V1371h-143.4V827.9H5218.5z"/>
		<path class="st2" d="M5631.2,946.1h-104V1371H5387V946.1h-105.1V827.9H5387V659.2h140.2v168.6h104V946.1z"/>
		<path class="st1" d="M1866.7,695.1c-10-3.7-20-7.7-29.9-11.7c-244.1-100.2-439.2-295.3-539.4-539.4c-3.9-9.5-7.7-19.1-11.3-28.8
			h-0.1C1252.6,49,1133,0,990.7,0S728.9,49,695.5,115.2h-0.2c-3.6,9.7-7.4,19.3-11.3,28.8c73.2,197.6,177.4,380.1,306.8,541.6
			c8.4,10.5,17,21,25.6,31.3c8.6,10.3,17.4,20.6,26.2,30.8l0.1,0.1c5.2,5.9,10.4,11.8,15.6,17.7c15.7,17.6,31.7,34.9,48,51.9
			c40.5,42.2,82.8,82.5,126.8,120.9c20.3,17.7,41.1,35,62.1,51.9c-69.4,55.6-135,115.9-196.1,180.3c-22.5,18.8-48.7,35.4-56.5,29.7
			l13.8,16.7l12.3,15.3c118.4,147.7,215.1,310,288.3,483.2c108.9-187.3,277.5-335.5,479.8-418.5c9.9-4.1,19.8-8,29.9-11.7
			c65.9-33.8,114.7-153.1,114.7-295C1981.4,848.2,1932.7,729,1866.7,695.1z"/>
		<path class="st1" d="M965.1,1263.4c-8.6-10.3-17.4-20.6-26.2-30.8l-0.1-0.1c-5.2-5.9-10.4-11.8-15.6-17.7
			c-15.7-17.6-31.7-34.9-48-51.9c-40.5-42.2-82.8-82.5-126.8-120.9c-20.3-17.7-41.1-35-62.1-51.9c68.6-55,133.5-114.5,194-178.1
			c22.6-19.5,49.8-36.9,57.9-31l-13.1-17.7L912.8,748C794.4,600.3,697.7,438,624.5,264.8c-109,187.4-277.7,335.6-480,418.6
			c-9.9,4.1-19.8,8-29.9,11.7C48.7,729,0,848.2,0,990.2c0,141.9,48.7,261.2,114.7,295c10,3.7,20,7.7,29.9,11.7
			c244.1,100.2,439.2,295.3,539.4,539.4c3.9,9.5,7.7,19.1,11.3,28.8h0.1c33.5,66.2,153,115.2,295.3,115.2s261.8-49,295.3-115.2h0.2
			c3.6-9.7,7.4-19.3,11.3-28.8c-73.2-197.6-177.4-380.1-306.8-541.6C982.2,1284.2,973.7,1273.8,965.1,1263.4z"/>
		<path class="st2" d="M2951.1,832.3c0,155.5-99.6,265-268.3,265h-169.7V1371h-150V568.4h150H2684
			C2850.4,568.4,2951.1,670.2,2951.1,832.3z M2793.5,829c0-65.7-40.5-128.1-136.9-128.1h-143.4V967h142.3
			C2752.9,966.9,2793.5,902.3,2793.5,829z"/>
		<path class="st2" d="M3266.2,812.5c170.8,0,283.6,118.3,283.6,285.8c0,168.6-112.8,285.8-283.6,285.8s-284.7-117.2-284.7-285.8
			C2981.5,930.8,3095.3,812.5,3266.2,812.5z M3266.2,1256c84.3,0,140.2-64.6,140.2-157.7s-55.8-157.7-140.2-157.7
			c-85.4,0-140.2,64.6-140.2,157.7S3180.8,1256,3266.2,1256z"/>
		<path class="st2" d="M3638.3,553h143.4v818h-143.4V553z"/>
		<path class="st2" d="M4430.6,827.9L4170,1499.1c-66.8,173-207,152.2-311,113.9l38.3-129.2c59.1,36.1,129.2,39.4,155.5-35l17.5-46
			l-232.1-574.9h151.1l147.8,392l144.5-392H4430.6z"/>
		<path class="st2" d="M4490.7,1371V553h143.4v486.2l200.4-211.3H5013l-235.4,248.6l221.2,294.6h-174.1l-141.3-196l-49.3,52.6V1371
			H4490.7z"/>
		<path class="st2" d="M5059.7,642.8c0-48.2,38.3-85.4,86.5-85.4c48.2,0,86.5,37.2,86.5,85.4c0,49.3-38.3,86.5-86.5,86.5
			C5098.1,729.3,5059.7,692.1,5059.7,642.8z M5218.5,827.9V1371h-143.4V827.9H5218.5z"/>
		<path class="st2" d="M5631.2,946.1h-104V1371H5387V946.1h-105.1V827.9H5387V659.2h140.2v168.6h104V946.1z"/>
	</g>
</g>
</svg>
