<?xml version="1.0" encoding="utf-8"?>
<!-- Generator: Adobe Illustrator 27.3.1, SVG Export Plug-In . SVG Version: 6.00 Build 0)  -->
<svg version="1.1" id="Layer_1" xmlns="http://www.w3.org/2000/svg" xmlns:xlink="http://www.w3.org/1999/xlink" x="0px" y="0px"
	 viewBox="0 0 8192 1980.3" style="enable-background:new 0 0 8192 1980.3;" xml:space="preserve">
<style type="text/css">
	.st0{fill:#FFAA00;}
	.st1{fill:#2D2D2D;}
</style>
<g>
	<g id="Octogon_00000055691441322506859590000004738072988748899733_">
		<path class="st0" d="M1745.1,714.3c-9.3-3.5-18.7-7.2-28-10.9c-228.2-93.7-410.6-276.1-504.3-504.3c-3.6-8.9-7.2-17.9-10.6-26.9
			h-0.1c-31.2-61.9-143-107.7-276.1-107.7s-244.7,45.8-276,107.7H650c-3.4,9.1-6.9,18-10.6,26.9c68.4,184.7,165.8,355.3,286.8,506.3
			c7.9,9.8,15.9,19.6,23.9,29.3s16.3,19.3,24.5,28.8l0.1,0.1c4.9,5.5,9.7,11,14.6,16.5c14.7,16.5,29.6,32.6,44.9,48.5l0,0
			c37.9,39.5,77.4,77.1,118.5,113l0,0c19,16.5,38.4,32.7,58.1,48.5c-64.9,52-126.2,108.4-183.3,168.6c-21,17.6-45.5,33.1-52.8,27.8
			l12.9,15.6l0,0l11.5,14.3c110.7,138.1,201.1,289.8,269.5,451.7c101.8-175.1,259.4-313.6,448.6-391.2c9.3-3.8,18.5-7.5,28-10.9
			c61.6-31.6,107.2-143.1,107.2-275.8C1852.4,857.4,1806.8,746,1745.1,714.3z"/>
		<path class="st0" d="M902.2,1245.6c-8-9.6-16.3-19.3-24.5-28.8l-0.1-0.1c-4.9-5.5-9.7-11-14.6-16.5
			c-14.7-16.5-29.6-32.6-44.9-48.5l0,0c-37.9-39.5-77.4-77.1-118.5-113l0,0c-19-16.5-38.4-32.7-58.1-48.5
			c64.1-51.4,124.8-107,181.4-166.5c21.1-18.2,46.6-34.5,54.1-29l-12.2-16.5l0,0l-11.5-14.3C742.7,625.7,652.3,474,583.8,312
			C481.9,487.2,324.2,625.8,135.1,703.4c-9.3,3.8-18.5,7.5-28,10.9C45.5,746,0,857.4,0,990.2c0,132.7,45.5,244.2,107.2,275.8
			c9.3,3.5,18.7,7.2,28,10.9c228.2,93.7,410.6,276.1,504.3,504.3c3.6,8.9,7.2,17.9,10.6,26.9h0.1c31.3,61.9,143,107.7,276.1,107.7
			s244.7-45.8,276.1-107.7h0.2c3.4-9.1,6.9-18,10.6-26.9c-68.4-184.7-165.8-355.3-286.8-506.3C918.2,1265,910.3,1255.3,902.2,1245.6
			z"/>
	</g>
	<g>
		<g>
			<path class="st1" d="M2758.9,842.6c0,145.4-93.1,247.7-250.8,247.7h-158.6v255.9h-140.2V595.9h140.2h159.8
				C2664.8,595.9,2758.9,691,2758.9,842.6z M2611.6,839.5c0-61.4-37.9-119.8-128-119.8h-134.1v248.8h133
				C2573.6,968.4,2611.6,908,2611.6,839.5z"/>
			<path class="st1" d="M3053.5,824.1c159.7,0,265.1,110.6,265.1,267.2c0,157.6-105.5,267.2-265.1,267.2
				c-159.7,0-266.2-109.6-266.2-267.2C2787.3,934.7,2893.7,824.1,3053.5,824.1z M3053.5,1238.7c78.8,0,131.1-60.4,131.1-147.4
				s-52.2-147.4-131.1-147.4c-79.8,0-131.1,60.4-131.1,147.4S2973.6,1238.7,3053.5,1238.7z"/>
			<path class="st1" d="M3401.3,581.5h134.1v764.7h-134.1V581.5z"/>
			<path class="st1" d="M4142,838.5L3898.4,1466c-62.4,161.7-193.5,142.3-290.7,106.5l35.8-120.8c55.3,33.7,120.8,36.8,145.4-32.7
				l16.4-43l-217-537.5h141.3l138.2,366.5l135.1-366.5H4142z"/>
			<path class="st1" d="M5138.1,595.9v750.3h-138.2L4657,818v528.2h-139.2V595.9H4657l342.9,528.2V595.9H5138.1z"/>
			<path class="st1" d="M5625.6,1346.2c-4.1-13.3-7.2-31.7-9.3-51.2c-30.8,44-84,64.5-146.4,64.5c-95.2,0-209.9-43-209.9-211.9
				V838.5h134.1V1121c0,104.4,67.6,119.8,104.4,119.8c44,0,114.6-23.6,114.6-120.8V838.5h134.1v413.6c0,24.6,4.1,70.7,10.3,94.1
				H5625.6z"/>
			<path class="st1" d="M6095,823c119.8,0,208.9,65.5,236.4,158.6l-114.6,46.1c-16.4-51.2-63.5-84-119.8-84
				c-80.9,0-130,59.4-130,148.5c0,92.1,52.2,146.4,130,146.4c57.3,0,104.4-31.7,121.8-80.9l112.7,42
				c-32.7,98.3-125.9,159.7-237.5,159.7c-156.6,0-261-106.5-261-267.2C5832.9,930.6,5937.3,823,6095,823z"/>
			<path class="st1" d="M6409.2,581.5h134.1v764.7h-134.1V581.5z"/>
			<path class="st1" d="M7131.5,1139.4h-382.8c8.2,75.7,67.6,106.5,129,106.5c61.4,0,100.3-28.7,122.8-72.6l110.6,44
				c-36.8,89.1-127,142.3-233.4,142.3c-150.5,0-254.9-106.5-254.9-267.2c0-159.7,102.4-269.2,256.9-269.2
				c151.5,0,251.9,106.5,251.9,269.2L7131.5,1139.4L7131.5,1139.4z M6750.7,1047.3h244.7c-5.1-76.8-52.2-113.6-117.7-113.6
				C6808,933.6,6763,973.6,6750.7,1047.3z"/>
			<path class="st1" d="M7574.3,1346.2c-4.1-13.3-7.2-31.7-9.3-51.2c-30.8,44-84,64.5-146.4,64.5c-95.2,0-209.9-43-209.9-211.9
				V838.5h134.1V1121c0,104.4,67.6,119.8,104.4,119.8c44,0,114.6-23.6,114.6-120.8V838.5H7696v413.6c0,24.6,4.1,70.7,10.3,94.1
				H7574.3z"/>
			<path class="st1" d="M7985.2,1253c40.9,0,72.6-15.3,72.6-51.2c0-26.6-17.4-40.9-49.2-49.2l-67.6-18.4
				c-109.6-28.7-147.4-82.9-147.4-149.5c0-91.1,69.6-161.7,192.5-161.7c100.3,0,179.1,48.1,194.5,134.1l-119.8,27.7
				c-4.1-34.8-32.7-54.2-70.7-54.2c-38.9,0-65.5,19.4-65.5,52.2c0,24.6,16.4,39.9,57.3,51.2l66.6,17.4
				c93.1,24.6,143.3,75.7,143.3,150.5c0,93.1-73.7,157.6-204.7,157.6c-127,0-195.5-61.4-207.8-144.3l122.8-20.5
				C7904.3,1230.6,7936.1,1253,7985.2,1253z"/>
		</g>
	</g>
</g>
</svg>
