<?xml version="1.0" standalone="no"?>
<!DOCTYPE svg PUBLIC "-//W3C//DTD SVG 20010904//EN"
 "http://www.w3.org/TR/2001/REC-SVG-20010904/DTD/svg10.dtd">
<svg version="1.0" xmlns="http://www.w3.org/2000/svg"
 width="1981.000000pt" height="1981.000000pt" viewBox="0 0 1981.000000 1981.000000"
 preserveAspectRatio="xMidYMid meet">
<metadata>
Created by potrace 1.14, written by Peter Selinger 2001-2017
</metadata>
<g transform="translate(0.000000,1981.000000) scale(0.100000,-0.100000)"
fill="#000000" stroke="none">
<path d="M9618 19805 c-2 -1 -55 -6 -118 -9 -63 -4 -128 -9 -145 -11 -16 -2
-57 -6 -90 -9 -33 -4 -71 -8 -85 -10 -443 -57 -832 -153 -1180 -293 -96 -38
-177 -75 -300 -138 -118 -60 -287 -169 -385 -249 -83 -67 -224 -215 -277 -290
-64 -91 -85 -132 -148 -295 l-51 -133 77 -202 c387 -1012 886 -2043 1431
-2956 128 -215 109 -183 194 -320 40 -63 78 -126 86 -140 31 -58 305 -471 480
-725 47 -69 237 -336 259 -365 7 -8 90 -118 185 -245 94 -126 175 -232 179
-235 4 -3 11 -12 16 -21 5 -9 23 -34 41 -55 18 -21 81 -100 140 -174 110 -139
279 -343 343 -416 19 -22 46 -53 59 -70 53 -63 238 -274 320 -364 531 -584
1063 -1109 1616 -1595 178 -156 174 -153 360 -309 90 -75 81 -69 222 -183
l103 -84 -113 -91 c-170 -138 -212 -172 -217 -179 -3 -3 -39 -34 -80 -68 -41
-34 -86 -72 -100 -84 -14 -12 -45 -39 -70 -61 -109 -94 -261 -229 -334 -296
-21 -19 -50 -46 -65 -59 -174 -158 -314 -293 -631 -610 -253 -252 -409 -400
-479 -453 -173 -131 -318 -207 -395 -208 l-39 0 39 -43 c22 -24 48 -55 59 -68
55 -69 264 -330 290 -363 17 -22 39 -51 51 -65 95 -118 495 -659 612 -828 7
-10 42 -61 79 -113 57 -82 385 -578 420 -635 7 -11 54 -87 106 -170 134 -214
147 -236 229 -374 40 -68 83 -140 95 -160 12 -20 34 -60 50 -88 15 -29 31 -53
35 -53 4 0 8 -5 8 -12 0 -6 20 -45 44 -87 24 -42 58 -103 76 -136 18 -33 41
-73 50 -90 9 -16 41 -75 70 -130 29 -55 70 -132 91 -171 58 -107 298 -586 351
-700 47 -100 82 -175 172 -366 25 -54 46 -100 46 -103 0 -3 13 -34 28 -68 16
-34 53 -117 82 -184 29 -68 57 -123 62 -123 5 0 12 8 15 18 5 15 28 53 80 138
7 10 31 50 54 88 106 175 389 584 535 776 35 45 268 336 273 340 3 3 28 32 55
65 173 210 556 612 770 810 174 161 217 199 336 300 105 90 290 242 341 280
14 11 96 72 180 136 152 114 192 143 401 285 144 98 445 285 598 371 69 39
150 85 180 102 70 40 574 292 620 311 19 7 67 28 105 46 39 17 149 64 245 103
96 40 184 76 195 81 11 4 41 15 66 24 194 69 455 323 629 611 108 180 262 515
295 645 1 3 5 12 8 20 14 32 79 260 98 340 11 47 22 92 24 100 15 64 64 326
70 370 3 30 8 66 10 80 10 54 14 88 21 165 3 44 8 88 9 97 19 100 27 717 12
938 -8 123 -35 385 -42 410 -2 8 -7 38 -10 66 -3 28 -8 61 -10 75 -3 13 -12
60 -20 104 -8 44 -17 91 -20 105 -3 14 -7 36 -10 50 -24 126 -137 513 -180
615 -7 17 -32 77 -56 135 -162 394 -384 705 -636 894 -101 76 -114 82 -293
152 -80 31 -158 62 -175 69 -16 8 -59 26 -95 40 -36 15 -90 38 -120 52 -30 14
-80 36 -110 50 -248 111 -686 340 -955 500 -301 179 -677 432 -940 635 -71 55
-330 262 -335 267 -3 4 -48 42 -100 86 -52 44 -104 88 -115 100 -11 11 -38 35
-60 54 -95 81 -350 327 -515 498 -194 200 -293 311 -508 568 -97 115 -244 306
-357 460 -32 44 -70 96 -85 115 -24 31 -290 433 -349 527 -267 426 -545 978
-762 1516 -97 241 -123 291 -219 410 -51 64 -206 213 -265 256 -199 143 -365
236 -599 336 -98 41 -337 125 -441 154 -22 6 -71 19 -110 30 -68 19 -172 43
-265 61 -25 5 -55 11 -66 14 -12 2 -39 7 -60 10 -22 4 -64 11 -94 16 -52 8
-105 16 -195 26 -22 3 -50 7 -63 9 -12 2 -62 7 -110 10 -48 4 -103 9 -122 12
-39 5 -707 13 -712 8z"/>
<path d="M6154 17013 c-230 -385 -547 -829 -855 -1201 -112 -134 -133 -159
-288 -332 -180 -200 -463 -483 -680 -678 -40 -37 -79 -72 -85 -77 -10 -10
-213 -184 -266 -229 -31 -26 -239 -190 -300 -236 -25 -19 -47 -37 -50 -40 -14
-15 -366 -263 -470 -331 -165 -108 -291 -189 -296 -189 -3 0 -18 -8 -32 -19
-26 -18 -212 -128 -297 -176 -379 -212 -831 -427 -1195 -569 -102 -40 -105
-41 -193 -80 -184 -81 -399 -294 -571 -566 -73 -114 -188 -341 -236 -465 -17
-44 -35 -89 -40 -100 -49 -107 -159 -513 -204 -755 -22 -118 -25 -135 -36
-220 -6 -41 -13 -88 -15 -105 -3 -27 -8 -69 -20 -176 -14 -124 -20 -301 -20
-559 1 -375 13 -552 61 -890 47 -325 153 -723 271 -1015 174 -430 400 -757
657 -948 97 -72 114 -80 296 -152 302 -119 539 -224 815 -362 326 -164 854
-465 932 -533 7 -5 15 -10 18 -10 15 0 500 -339 610 -427 17 -13 35 -27 40
-31 36 -27 201 -157 205 -161 3 -3 28 -24 55 -46 28 -21 64 -51 80 -66 17 -15
79 -69 140 -120 60 -52 145 -128 190 -169 551 -514 943 -960 1402 -1595 59
-82 238 -351 296 -445 70 -115 183 -304 212 -355 246 -438 451 -867 607 -1270
27 -71 60 -150 73 -175 66 -128 217 -301 367 -418 141 -110 263 -185 452 -277
175 -85 261 -120 442 -180 121 -41 400 -117 469 -130 17 -2 41 -7 55 -10 44
-10 184 -36 220 -41 19 -2 42 -6 50 -9 8 -2 44 -7 80 -10 36 -4 67 -8 70 -10
3 -1 43 -6 90 -10 47 -4 87 -8 90 -10 3 -2 61 -7 130 -11 234 -16 880 -8 979
11 10 2 54 6 97 10 43 4 81 9 84 10 3 2 34 6 70 10 36 3 72 8 80 10 8 2 35 7
60 10 25 4 89 15 143 26 712 139 1292 402 1627 739 148 147 215 248 285 430
20 52 43 112 52 132 18 42 24 18 -64 248 -24 63 -48 124 -53 135 -4 11 -40 99
-78 195 -78 195 -205 496 -258 608 -19 41 -34 76 -34 78 0 2 -22 50 -48 106
-27 57 -64 137 -83 178 -51 113 -359 727 -435 870 -56 105 -185 338 -274 495
-126 223 -326 556 -432 720 -32 50 -61 98 -64 108 -4 9 -10 17 -15 17 -5 0 -9
5 -9 10 0 6 -9 23 -19 38 -10 15 -92 137 -181 272 -89 135 -169 253 -178 263
-8 9 -20 25 -26 36 -22 37 -144 210 -228 323 -7 10 -23 33 -36 50 -49 70 -350
468 -398 528 -7 8 -61 76 -120 150 -59 74 -160 198 -223 275 -64 77 -123 148
-131 159 -8 10 -22 26 -30 35 -9 9 -43 48 -75 86 -48 56 -131 152 -210 241 -5
6 -41 46 -80 89 -38 42 -79 87 -90 99 -136 152 -267 290 -520 546 -287 291
-560 554 -805 775 -173 155 -302 269 -380 335 -36 30 -67 57 -70 60 -5 5 -108
91 -143 120 -10 8 -28 22 -38 32 -11 9 -38 31 -61 50 -23 18 -46 38 -52 43 -6
6 -41 34 -78 64 -38 30 -68 58 -68 61 0 6 115 103 278 235 45 36 247 208 252
214 3 3 34 31 70 61 36 30 70 60 76 65 6 6 44 39 85 75 40 36 87 79 104 95 18
17 49 45 71 64 135 117 484 453 748 720 105 106 210 213 234 236 58 59 221
183 317 241 100 61 180 93 228 94 l38 0 -43 62 c-24 33 -83 111 -132 172 -50
61 -106 131 -125 157 -20 25 -81 104 -137 175 -55 71 -145 188 -198 259 -54
72 -103 137 -109 145 -7 8 -64 87 -127 175 -63 88 -118 165 -123 170 -4 6 -17
25 -30 43 -12 18 -80 117 -150 220 -71 103 -180 266 -242 362 -63 96 -121 184
-128 195 -8 11 -45 70 -82 130 -476 769 -821 1404 -1210 2230 -40 85 -198 438
-263 588 l-29 68 -89 -148z"/>
</g>
</svg>
