<?xml version="1.0" standalone="no"?>
<!DOCTYPE svg PUBLIC "-//W3C//DTD SVG 20010904//EN"
 "http://www.w3.org/TR/2001/REC-SVG-20010904/DTD/svg10.dtd">
<svg version="1.0" xmlns="http://www.w3.org/2000/svg"
 width="1852.000000pt" height="1852.000000pt" viewBox="0 0 1852.000000 1852.000000"
 preserveAspectRatio="xMidYMid meet">
<metadata>
Created by potrace 1.14, written by Peter Selinger 2001-2017
</metadata>
<g transform="translate(0.000000,1852.000000) scale(0.100000,-0.100000)"
fill="#000000" stroke="none">
<path d="M8958 18505 c-1 -1 -48 -6 -103 -9 -351 -23 -787 -102 -1068 -193
-43 -14 -84 -26 -90 -27 -7 -1 -16 -4 -22 -7 -5 -4 -28 -12 -50 -19 -75 -23
-300 -119 -410 -176 -112 -57 -332 -199 -395 -254 -207 -184 -286 -294 -376
-526 l-50 -132 29 -78 c40 -107 194 -499 213 -543 9 -20 20 -45 24 -56 5 -11
18 -41 29 -67 12 -26 21 -49 21 -52 0 -3 12 -31 26 -63 14 -32 33 -74 41 -93
18 -40 31 -69 103 -230 161 -358 449 -934 628 -1255 30 -55 66 -120 80 -145
80 -148 396 -676 520 -870 70 -109 404 -607 460 -686 94 -133 176 -248 189
-264 6 -8 65 -87 131 -175 185 -248 435 -568 479 -613 7 -8 26 -30 41 -50 15
-20 37 -48 48 -62 12 -14 75 -88 140 -165 111 -132 159 -187 194 -225 8 -9 46
-52 85 -96 38 -43 72 -81 75 -84 3 -3 28 -30 55 -60 319 -353 846 -881 1209
-1211 32 -30 71 -65 86 -79 88 -80 265 -236 354 -311 16 -13 34 -29 40 -34 10
-9 224 -187 343 -284 22 -18 47 -37 54 -42 17 -11 19 -9 -237 -220 -180 -149
-259 -216 -294 -249 -9 -8 -47 -42 -85 -75 -39 -33 -75 -64 -81 -70 -6 -5 -45
-41 -87 -79 -243 -217 -367 -336 -725 -692 -295 -295 -383 -376 -473 -439
-171 -120 -283 -174 -337 -160 -23 6 -24 5 -11 -12 8 -10 17 -20 20 -23 6 -6
319 -397 359 -449 14 -18 30 -38 35 -44 6 -7 44 -57 85 -112 41 -55 78 -102
81 -105 9 -8 261 -355 395 -545 124 -176 425 -627 479 -717 5 -10 46 -75 90
-145 44 -70 85 -135 90 -145 6 -9 42 -70 81 -135 395 -652 801 -1444 1149
-2240 l57 -133 19 24 c11 13 19 27 19 31 0 20 267 436 409 635 156 220 436
575 591 750 706 795 1476 1427 2335 1919 88 50 167 95 175 100 46 29 438 227
545 276 228 105 588 255 647 270 15 4 32 13 39 21 6 8 17 14 23 14 23 0 151
98 232 176 237 232 430 572 576 1018 26 82 50 159 52 170 3 12 18 77 36 146
17 69 33 136 35 150 2 14 9 50 15 80 6 30 13 71 16 90 2 19 7 45 10 58 2 12 7
42 10 66 2 24 7 53 9 64 2 11 7 53 10 94 4 40 9 87 11 103 25 192 25 908 -1
1045 -2 14 -6 50 -9 80 -5 65 -16 155 -22 190 -2 14 -7 41 -10 60 -69 442
-211 893 -386 1220 -44 83 -171 286 -187 300 -4 3 -26 30 -51 60 -75 93 -191
199 -291 266 -53 35 -100 64 -104 64 -13 0 -209 78 -395 157 -636 272 -1224
607 -1810 1030 -188 136 -584 455 -650 523 -8 8 -33 30 -55 49 -174 147 -523
496 -751 751 -324 363 -753 935 -949 1267 -5 9 -28 46 -51 82 -35 57 -92 156
-213 371 -39 68 -247 484 -283 565 -15 33 -41 91 -58 129 -38 84 -114 266
-169 407 -23 59 -65 142 -94 185 -97 147 -339 364 -512 459 -27 15 -61 35 -75
44 -85 57 -391 187 -584 247 -106 34 -345 98 -403 109 -15 2 -39 7 -53 10 -73
16 -305 54 -356 60 -32 3 -72 8 -89 10 -16 2 -61 7 -100 10 -38 3 -88 8 -110
11 -46 5 -711 14 -717 9z"/>
<path d="M5800 15973 c-19 -31 -39 -65 -45 -74 -93 -161 -440 -676 -522 -774
-5 -5 -31 -39 -58 -75 -59 -78 -248 -313 -286 -355 -15 -16 -60 -68 -100 -115
-127 -146 -157 -178 -414 -436 -307 -307 -521 -499 -825 -738 -226 -178 -530
-393 -740 -525 -30 -19 -81 -52 -113 -73 -32 -21 -61 -38 -63 -38 -3 0 -25
-13 -49 -30 -24 -16 -46 -30 -49 -30 -3 0 -29 -14 -58 -32 -131 -78 -280 -158
-498 -267 -294 -147 -453 -218 -700 -316 -107 -42 -213 -86 -235 -97 -222
-118 -454 -388 -626 -729 -43 -86 -154 -347 -163 -384 -2 -5 -6 -17 -9 -25 -9
-24 -47 -145 -52 -166 -3 -10 -18 -71 -35 -134 -17 -63 -33 -127 -35 -142 -3
-16 -12 -56 -20 -90 -23 -103 -48 -257 -65 -408 -6 -52 -13 -113 -15 -135 -26
-218 -27 -836 -1 -1065 2 -19 7 -62 11 -95 7 -70 9 -84 25 -185 16 -103 17
-112 30 -180 6 -33 13 -72 16 -87 15 -87 90 -362 134 -494 182 -548 456 -955
773 -1148 37 -22 70 -41 74 -41 14 0 346 -135 507 -207 348 -154 791 -387
1083 -569 176 -110 299 -190 311 -201 8 -7 23 -18 35 -24 62 -34 435 -308 607
-448 95 -77 298 -247 310 -261 3 -3 45 -41 95 -85 264 -236 585 -567 860 -887
55 -64 230 -281 295 -368 36 -47 67 -87 71 -90 29 -27 369 -531 468 -695 62
-102 63 -104 99 -161 17 -29 32 -55 32 -57 0 -3 25 -49 56 -103 161 -282 372
-726 511 -1074 41 -102 92 -214 113 -250 125 -210 390 -432 700 -585 52 -26
103 -51 113 -56 40 -21 269 -109 372 -143 223 -72 565 -149 770 -172 28 -3 53
-7 56 -9 3 -2 37 -7 75 -10 38 -3 89 -8 114 -10 167 -16 247 -19 505 -19 257
-1 461 6 535 18 14 3 54 7 90 11 120 11 155 16 245 31 50 8 104 17 120 20 53
8 258 54 335 75 41 11 82 21 90 24 110 28 329 106 470 168 390 169 680 390
840 638 27 42 73 139 104 216 l54 141 -24 68 c-86 235 -358 894 -459 1109 -8
17 -41 88 -75 159 -33 70 -60 130 -60 133 0 7 -301 608 -355 708 -103 193
-121 226 -233 425 -114 203 -344 591 -418 705 -21 33 -43 68 -49 77 -85 147
-429 657 -632 938 -97 135 -275 374 -283 380 -3 3 -17 21 -30 40 -56 81 -616
771 -650 800 -3 3 -30 34 -60 70 -30 35 -59 69 -65 75 -14 16 -143 160 -203
226 -27 32 -58 66 -68 76 -11 11 -68 73 -129 139 -206 223 -715 726 -990 979
-22 20 -56 51 -75 69 -19 18 -60 55 -91 82 -30 27 -89 79 -131 117 -71 62
-355 304 -458 389 -25 20 -63 51 -86 70 -22 18 -52 42 -66 52 l-26 19 112 91
c188 153 593 498 616 525 3 3 41 38 85 76 43 39 91 81 105 95 15 14 80 74 146
135 65 60 271 261 456 446 186 185 370 361 410 392 161 123 319 207 389 207
l29 0 -57 78 c-32 42 -101 132 -155 198 -140 175 -400 515 -493 644 -44 61
-85 116 -91 123 -5 7 -32 44 -59 82 -26 39 -65 93 -85 120 -111 153 -470 691
-470 705 0 5 -3 10 -8 10 -4 0 -12 9 -17 20 -6 11 -50 84 -100 162 -49 79 -95
152 -101 163 -6 11 -29 50 -52 87 -95 155 -334 571 -434 758 -25 47 -63 117
-83 155 -195 361 -533 1070 -685 1435 -13 30 -26 58 -30 62 -3 5 -21 -18 -40
-49z"/>
</g>
</svg>
