<?xml version="1.0" encoding="UTF-8"?>
<svg id="Layer_1" data-name="Layer 1" xmlns="http://www.w3.org/2000/svg" version="1.1" viewBox="0 0 22 26">
  <defs>
    <style>
      .cls-1 {
        fill: #0f8fff;
        stroke-width: 0px;
      }
    </style>
  </defs>
  <path class="cls-1" d="M21.7,7.3L14.7.3C14.5.1,14.3,0,14,0H2C.9,0,0,.9,0,2v22c0,1.1.9,2,2,2h18c1.1,0,2-.9,2-2V8c0-.3-.1-.5-.3-.7ZM8.7,18.3c.4.4.4,1,0,1.4-.4.4-1,.4-1.4,0l-3-3c-.4-.4-.4-1,0-1.4,0,0,0,0,0,0l3-3c.4-.4,1-.4,1.4,0,.4.4.4,1,0,1.4l-2.3,2.3,2.3,2.3ZM17.7,16.7l-3,3c-.4.4-1,.4-1.4,0s-.4-1,0-1.4l2.3-2.3-2.3-2.3c-.4-.4-.4-1,0-1.4.4-.4,1-.4,1.4,0l3,3c.4.4.4,1,0,1.4h0ZM14,8V2.5l5.5,5.5h-5.5Z"/>
</svg>